<?xml version="1.0"?>
<svg xmlns="http://www.w3.org/2000/svg" viewBox="0 0 64 64" width="512" height="512"><g id="Cart-Delivery"><polygon points="55 34 55 51 27 51 27 34 37 34 45 34 55 34" style="fill:#a97c50"/><circle cx="54" cy="58" r="3" style="fill:#787680"/><circle cx="28" cy="58" r="3" style="fill:#787680"/><path d="M45,34v3a1,1,0,0,1-1,1H38a1,1,0,0,1-1-1V26h8v8Z" style="fill:#b38c62"/><rect x="27" y="30" width="10" height="4" style="fill:#c49a6c"/><rect x="45" y="30" width="10" height="4" style="fill:#c49a6c"/><path d="M37,26v4H27V27a1,1,0,0,1,1-1Z" style="fill:#a97c50"/><path d="M55,27v3H45V26h9A1,1,0,0,1,55,27Z" style="fill:#a97c50"/><rect x="48" y="46" width="4" height="2" style="fill:#c49a6c"/><rect x="44" y="46" width="2" height="2" style="fill:#c49a6c"/><rect x="12" y="4" width="6" height="2" style="fill:#57565c"/><path d="M61,51v4H20l-3-3V4h3a1,1,0,0,1,1,1V51H61Z" style="fill:#898890"/><path d="M11,3a2.006,2.006,0,0,1,2,2,2.015,2.015,0,0,1-2,2H5A2.006,2.006,0,0,1,3,5,2.015,2.015,0,0,1,5,3Z" style="fill:#acabb1"/></g></svg>
