<?xml version="1.0" encoding="utf-8"?>
<!-- Generator: Adobe Illustrator 23.0.0, SVG Export Plug-In . SVG Version: 6.00 Build 0)  -->
<svg version="1.1" id="Layer_1" xmlns="http://www.w3.org/2000/svg" xmlns:xlink="http://www.w3.org/1999/xlink" x="0px" y="0px"
	 viewBox="0 0 100 100" style="enable-background:new 0 0 100 100;" xml:space="preserve">
<style type="text/css">
	.st0{fill:#AC947F;}
	.st1{fill:#787680;}
	.st2{fill:#754C29;}
	.st3{fill:#E6E7E8;}
	.st4{fill:#FFD422;}
	.st5{fill:#A97C50;}
	.st6{fill:#78B9EB;}
	.st7{fill:#FFA733;}
	.st8{fill:#B38C62;}
	.st9{fill:#C49A6C;}
	.st10{fill:#FF6243;}
	.st11{fill:#898890;}
</style>
<g>
	<ellipse class="st0" cx="50" cy="49.5" rx="48.5" ry="48.01"/>
</g>
<g id="Check_List">
	<path class="st1" d="M49,18.4c-1.99,0-3.6-1.61-3.6-3.6s1.61-3.6,3.6-3.6c1.99,0,3.6,1.61,3.6,3.6S50.99,18.4,49,18.4z M49,13.6
		c-0.66,0-1.2,0.54-1.2,1.2S48.34,16,49,16c0.66,0,1.2-0.54,1.2-1.2S49.66,13.6,49,13.6z"/>
	<path class="st2" d="M28.6,18.4h40.8c2.65,0,4.8,2.15,4.8,4.8V76c0,2.65-2.15,4.8-4.8,4.8H28.6c-2.65,0-4.8-2.15-4.8-4.8V23.2
		C23.8,20.55,25.95,18.4,28.6,18.4z"/>
	<path class="st3" d="M67,23.2H31c-0.66,0-1.2,0.54-1.2,1.2v50.4c0,0.66,0.54,1.2,1.2,1.2h37.2V24.4C68.2,23.74,67.66,23.2,67,23.2z
		"/>
	<path class="st4" d="M86.2,62.8c0,7.04-5.09,13.05-12.04,14.21c-0.78,0.13-1.57,0.2-2.36,0.19c-7.95,0-14.4-6.44-14.4-14.4
		c0-6.57,4.44-12.31,10.8-13.95c1.18-0.31,2.39-0.46,3.6-0.46c0.79,0,1.57,0.06,2.35,0.19C81.1,49.74,86.2,55.75,86.2,62.8z"/>
	<path class="st5" d="M80.2,60.4v8.4c0,0.66-0.54,1.2-1.2,1.2H64.6c-0.66,0-1.2-0.54-1.2-1.2v-8.4H80.2z"/>
	<rect x="37" y="50.8" class="st6" width="9.6" height="9.6"/>
	<polygon class="st6" points="46.6,36.4 46.6,40 46.6,43.6 37,43.6 37,34 44.2,34 46.6,34 	"/>
	<path class="st7" d="M64.6,23.2v1.2c0,1.32-1.08,2.4-2.4,2.4H35.8c-1.32,0-2.4-1.08-2.4-2.4v-7.2h31.2V23.2z"/>
	<polygon class="st8" points="74.2,60.4 74.2,62.8 69.4,62.8 69.4,60.4 69.4,55.6 74.2,55.6 	"/>
	<path class="st9" d="M69.4,55.6v4.8h-6v-3.6c0-0.66,0.54-1.2,1.2-1.2H69.4z"/>
	<path class="st9" d="M80.2,56.8v3.6h-6v-4.8H79C79.66,55.6,80.2,56.14,80.2,56.8z"/>
	<path class="st10" d="M43,41.2c-0.32,0-0.62-0.13-0.85-0.35l-3.6-3.6l1.7-1.7L43,38.3l5.15-5.15l1.7,1.7l-6,6
		C43.62,41.07,43.32,41.2,43,41.2z"/>
	<rect x="52.6" y="41.2" class="st11" width="9.6" height="2.4"/>
	<rect x="52.6" y="36.4" class="st11" width="9.6" height="2.4"/>
</g>
</svg>
